<svg xmlns="http://www.w3.org/2000/svg" viewBox="0 0 692.7 613.84"><defs><style>.cls-1{fill:#010101;}.cls-2{fill:#fff;}</style></defs><g id="Layer_2" data-name="Layer 2"><g id="Layer_1-2" data-name="Layer 1"><path class="cls-1" d="M.07,311.16l-.07-7A61.08,61.08,0,0,1,8.26,278.9Q81,153.13,153.6,27.21c9.22-16,23-24.89,41.36-26.85.76-.09,1.51-.24,2.26-.36,18.1.06,36.2.17,54.3.18q97,0,194,0,25.62,0,51.25-.11c13.44,1.5,25.15,6.57,34.58,16.5,5.46,5.75,8.93,12.79,12.83,19.54q47.13,81.44,94.12,163c15.67,27.16,31.45,54.26,47,81.52,10.08,17.72,9.87,35.66-.27,53.33q-26,45.36-52.28,90.61-46.92,81.28-93.87,162.53c-10.13,17.47-25.56,26.66-45.77,26.69q-147.37.18-294.75-.07c-19.11,0-34.16-8.94-43.8-25.44C128.08,543,102.06,497.49,75.85,452.11Q42.12,393.66,8.28,335.26A62.83,62.83,0,0,1,.07,311.16Z"/><path class="cls-2" d="M346.18,594.37q-69.3,0-138.59,0a51.89,51.89,0,0,1-25.3-6.87,22.42,22.42,0,0,1-8.82-8.8Q119.81,485.52,66,392.41q-19.37-33.54-38.8-67a73.34,73.34,0,0,1-5.57-12.15c-3.06-8.6.67-15.84,4.66-22.79q43.12-75,86.51-149.93c19.75-34.2,39.75-68.26,59.09-102.69,6.48-11.54,16.82-15.33,28.43-17.62,6.83-1.35,13.82-.57,20.73-.57q131.48-.06,262.93-.06a53.17,53.17,0,0,1,24.39,5.84,26,26,0,0,1,11.18,10.65Q557.65,102.32,596,168.42q35.24,61,70.42,122.06A44.23,44.23,0,0,1,672,305.06c.9,5.25-1.24,10.19-3.72,14.61-10.6,18.89-21.44,37.65-32.26,56.41Q577.89,476.85,519.76,577.63c-6.12,10.64-16.29,13.64-27,16.12-3.37.79-6.87.63-10.34.63Q414.32,594.35,346.18,594.37Z"/></g></g></svg>