<svg xmlns="http://www.w3.org/2000/svg" viewBox="0 0 371.78 52.67"><defs><style>.cls-1{fill:#e39c26;}.cls-2{fill:#4568b1;}</style></defs><g id="Layer_2" data-name="Layer 2"><g id="Layer_1-2" data-name="Layer 1">
<path class="cls-1" d="M371.74,6.22q0,22.68,0,45.34c0,.92-.19,1.11-1.11,1.11q-184.79,0-369.55,0C.19,52.67,0,52.48,0,51.56Q.06,28.9,0,6.22a2.64,2.64,0,0,1,1.91-.45H68.22a4.3,4.3,0,0,1,3,1.09C78,12.73,84.81,18.54,91.62,24.39c7.75,6.66,15.56,13.24,23.24,20A5.73,5.73,0,0,0,119,45.71q63.72,0,127.46,0c2.38,0,4.75,0,7.13,0a4.53,4.53,0,0,0,3.21-1.25c6.93-6,14-12,20.91-17.93C285.32,20,293,13.45,300.59,6.86A4.78,4.78,0,0,1,304,5.76h65.2A3.62,3.62,0,0,1,371.74,6.22Z"/>
<path class="cls-2" d="M73.13,0a35.29,35.29,0,0,0,5,4.54Q93.78,18,109.48,31.39c3,2.57,6,5.14,9,7.75a2.74,2.74,0,0,0,1.94.72q64.73,0,129.45.11c2.57,0,4-1.42,5.66-2.8,2.88-2.41,5.7-4.89,8.56-7.32l24.65-21c2.75-2.34,5.49-4.68,8.22-7,.61-.53,1.36-.94,1.67-1.76q35.92,0,71.86,0c1.06,0,1.35.2,1.27,1.27-.11,1.65,0,3.3,0,4.95q-34.22,0-68.43,0a3.08,3.08,0,0,0-2.19.81q-22.33,19.19-44.7,38.35a2.79,2.79,0,0,1-2,.72q-68.58,0-137.18,0a2.78,2.78,0,0,1-1.94-.72Q93,26.18,70.64,7a3,3,0,0,0-2.18-.81q-34.21,0-68.43,0C0,4.37.05,2.51,0,.65,0,.11.11-.07.65,0a5,5,0,0,0,.77,0Z"/></g></g></svg>