<svg xmlns="http://www.w3.org/2000/svg" viewBox="0 0 685.8 607.72"><defs><style>.cls-1{fill:#010101;}</style></defs><g id="Layer_2" data-name="Layer 2"><g id="Layer_1-2" data-name="Layer 1"><path class="cls-1" d="M.07,308.06,0,301.18a60.5,60.5,0,0,1,8.17-25.06Q80.23,151.59,152.07,26.94,165.75,3.21,193,.35c.76-.08,1.5-.23,2.25-.35C213.18.06,231.1.17,249,.18q96,0,192.06,0,25.37,0,50.74-.11c13.3,1.48,24.9,6.51,34.24,16.34,5.4,5.69,8.84,12.66,12.7,19.34q46.65,80.62,93.17,161.33c15.52,26.89,31.14,53.73,46.49,80.72,10,17.54,9.78,35.3-.27,52.79q-25.77,44.93-51.76,89.71-46.46,80.47-92.93,160.91c-10,17.3-25.31,26.39-45.32,26.42q-145.9.18-291.81-.06c-18.92,0-33.82-8.86-43.36-25.19C126.8,537.57,101,492.53,75.1,447.6Q41.68,389.73,8.2,331.91A62.11,62.11,0,0,1,.07,308.06Z"/></g></g></svg>